<svg viewBox="0 0 150 50" xmlns="http://www.w3.org/2000/svg" xmlns:xlink="http://www.w3.org/1999/xlink" aria-label="Kmart Australia" aria-labelledby="icon-title-51958" aria-describedby="icon-title-51958" titleid="icon-title-51958" data-testid="logo-icon"><title>Kmart Australia</title><defs><path id="kmart_svg__a" d="M0 .663h153.33v48.959H0z"></path></defs><g fill="none" fill-rule="evenodd"><g transform="translate(0 .193)"><mask id="kmart_svg__b" fill="#fff"><use xlink:href="#kmart_svg__a"></use></mask><path d="M152.963 48.57L84.497 25.112l60.934-23.25a.54.54 0 00-.192-1.046H74.07a.542.542 0 00-.191.035L57.88 6.893l2.94-5.432a.542.542 0 00-.477-.797h-39.15a.541.541 0 00-.496.325L.045 48.82a.54.54 0 00.496.755h38.91c.218 0 .416-.13.499-.332l3.363-8.075 2.448-.412 25.475 8.837a.51.51 0 00.178.03h81.374a.541.541 0 00.175-1.052" fill="#FEFEFE" mask="url(#kmart_svg__b)"></path></g><path fill="#DD182C" d="M78.87 25.403l58.908-22.48H74.32l-20.567 7.77 4.284-7.922H22.098L2.633 47.85h35.9l3.419-8.204 3.973-.669 25.72 8.923h72.89z"></path><path d="M153.24 22.57a.538.538 0 00-.452-.243l-3.874-.001 1.046-2.432a.538.538 0 00-.497-.754.545.545 0 00-.142.02l-9.745 2.666c-1.982-.128-3.72.29-4.446.496l-16.3.005c-.5-.12-1.512-.303-2.91-.303-2.66 0-4.95.674-6.621 1.637-.54-.777-1.984-1.487-4.22-1.504-1.343-.01-2.997.218-4.838.862-.548-.387-1.587-.858-3.409-.858-.524 0-1.265.062-1.941.16h-7.425l-2.7 1.24-3.036 6.87a.543.543 0 00.495.759h50.181a.54.54 0 00.497-.328l1.198-2.802c.139-.294.211-.338 1.544-.565.327-.057.74-.085 1.228-.085-.278.827-.203 1.676.22 2.379.524.877 1.477 1.403 2.545 1.403l9.802-.001c.218 0 .412-.13.497-.327l3.348-7.783a.54.54 0 00-.045-.51" fill="#FEFEFE"></path><path d="M108.105 25.942s.644-2.096-2.976-2.096c-3.387 0-4.88.937-5.331 1.128 0 0-.417-1.128-2.925-1.128-3.382 0-4.299.793-4.759.983l.391-.856h-6.117l-2.462 5.553h6.12l1.33-3.047c.308-.233.711-.522 1.486-.522.777 0 .94.254.867.447l-1.369 3.122h5.942l1.331-3.047c.307-.233.707-.522 1.487-.522.771 0 .936.254.863.447l-1.37 3.122h5.917l1.575-3.584zM114.88 26.737c-.08.359.745.566 1.942.566 1.273 0 2.12-.438 2.196-.796.075-.36-.65-.561-1.92-.561-1.2 0-2.144.43-2.219.791m.913-2.983c1.036 0 3.353.238 4.212.753l.287-.533h6.185l-2.415 5.552h-6.182l.345-.784c-.603.332-2.208.92-4.306.92-2.099 0-5.722-.39-5.563-2.39.167-2.028 3.41-3.518 7.437-3.518M138.362 25.812c-3.623-.21-5.371.645-5.734 1.494l-.956 2.22h-6.224l2.407-5.552h6.232l-.284.533c1.957-.796 4.24-1.126 5.58-1.028l-1.02 2.333zM148.706 29.53l.91-2.109h-4.676l.71-1.649h4.67l.778-1.796-4.689-.002 1.125-2.614-7.104 1.92-1.927 4.487c-.432.95.176 1.762 1.167 1.762h9.036z" fill="#1768B0"></path></g></svg>